<!DOCTYPE svg PUBLIC "-//W3C//DTD SVG 1.1//EN" "http://www.w3.org/Graphics/SVG/1.1/DTD/svg11.dtd">
<!-- Uploaded to: SVG Repo, www.svgrepo.com, Transformed by: SVG Repo Mixer Tools -->
<svg fill="#60ff0a" width="800px" height="800px" viewBox="-3.84 -3.84 23.68 23.68" xmlns="http://www.w3.org/2000/svg" stroke="#60ff0a" stroke-width="0.00016">
<g id="SVGRepo_bgCarrier" stroke-width="0" transform="translate(0,0), scale(1)">
<rect x="-3.84" y="-3.84" width="23.68" height="23.68" rx="11.84" fill="#000000" strokewidth="0"/>
</g>
<g id="SVGRepo_tracerCarrier" stroke-linecap="round" stroke-linejoin="round" stroke="#020302" stroke-width="0.288">
<path d="M10.91 2.75h3a11.67 11.67 0 0 1-3.8 7.46 11.71 11.71 0 0 1-7.88 3h-.77V10.4L4 9.52l.84 1.42.59 1.06 1.07-.62a14.36 14.36 0 0 0 4.77-4.5L12 5.73l-1.22-.64-1-.52 1.09-1.82m0-1.25a1.26 1.26 0 0 0-1.07.61L8.75 3.93a1.24 1.24 0 0 0 .49 1.75l1 .52a13.06 13.06 0 0 1-4.36 4.1L5 8.89a1.25 1.25 0 0 0-1-.62 1.22 1.22 0 0 0-.41.07L1 9.22a1.25 1.25 0 0 0-.79 1.18v2.85a1.25 1.25 0 0 0 1.25 1.25h.75A13 13 0 0 0 15.14 2.88a1.26 1.26 0 0 0-1.25-1.38z"/>
</g>
<g id="SVGRepo_iconCarrier">
<path d="M10.91 2.75h3a11.67 11.67 0 0 1-3.8 7.46 11.71 11.71 0 0 1-7.88 3h-.77V10.4L4 9.52l.84 1.42.59 1.06 1.07-.62a14.36 14.36 0 0 0 4.77-4.5L12 5.73l-1.22-.64-1-.52 1.09-1.82m0-1.25a1.26 1.26 0 0 0-1.07.61L8.75 3.93a1.24 1.24 0 0 0 .49 1.75l1 .52a13.06 13.06 0 0 1-4.36 4.1L5 8.89a1.25 1.25 0 0 0-1-.62 1.22 1.22 0 0 0-.41.07L1 9.22a1.25 1.25 0 0 0-.79 1.18v2.85a1.25 1.25 0 0 0 1.25 1.25h.75A13 13 0 0 0 15.14 2.88a1.26 1.26 0 0 0-1.25-1.38z"/>
</g>
</svg>